<svg width="19" height="20" viewBox="0 0 19 20" fill="none" xmlns="http://www.w3.org/2000/svg">
<path d="M18.6261 5.75668C18.3809 5.21582 17.9807 4.7599 17.4762 4.44668L11.0061 0.44668C10.5327 0.15465 9.98752 0 9.43122 0C8.87492 0 8.32962 0.15465 7.85622 0.44668L1.38617 4.44668C0.897174 4.75637 0.508214 5.2009 0.266174 5.72668C0.0256743 6.25888 -0.0542457 6.84972 0.0361943 7.42669L1.70617 17.4267C1.81893 18.1222 2.17296 18.7559 2.70617 19.2166C3.245 19.6723 3.93059 19.9174 4.63617 19.9066H7.17621C7.27507 19.908 7.37318 19.8895 7.46482 19.8523C7.55642 19.8151 7.63962 19.7599 7.70952 19.69C7.77942 19.62 7.83462 19.5368 7.87182 19.4452C7.90902 19.3536 7.92752 19.2555 7.92622 19.1566V15.5066C7.92882 15.2926 8.01502 15.0881 8.16632 14.9368C8.31762 14.7854 8.52222 14.6992 8.73622 14.6966H10.0661C10.2832 14.6987 10.4911 14.7847 10.6462 14.9366C10.7947 15.089 10.8773 15.2938 10.8761 15.5066V19.2266C10.8787 19.4247 10.9586 19.614 11.0987 19.7541C11.2388 19.8942 11.428 19.9741 11.6261 19.9766H14.2162C14.9206 19.9728 15.6012 19.7212 16.1387 19.2659C16.6762 18.8107 17.0364 18.1808 17.1562 17.4867L18.8261 7.48669C18.9357 6.90306 18.866 6.29992 18.6261 5.75668ZM13.8861 9.85664H5.02618C4.76096 9.85664 4.50663 9.75134 4.31909 9.56374C4.13155 9.37624 4.02618 9.12194 4.02618 8.85664C4.02618 8.59144 4.13155 8.33714 4.31909 8.14954C4.50663 7.96203 4.76096 7.85669 5.02618 7.85669H13.9262C14.1914 7.85669 14.4457 7.96203 14.6333 8.14954C14.8208 8.33714 14.9262 8.59144 14.9262 8.85664C14.9262 9.12194 14.8208 9.37624 14.6333 9.56374C14.4457 9.75134 14.1914 9.85664 13.9262 9.85664H13.8861Z" fill="#2A2A2E"/>
</svg>
