<svg width="26" height="26" viewBox="0 0 26 26" fill="none" xmlns="http://www.w3.org/2000/svg">
<path d="M21.2678 7.69811L14.2634 3.34599C13.8803 3.10649 13.4374 2.97949 12.9855 2.97949C12.5337 2.97949 12.0908 3.10649 11.7076 3.34599L4.70327 7.69811C4.305 7.94905 3.9889 8.31106 3.79395 8.73952C3.59899 9.16799 3.53373 9.64414 3.6062 10.1093L5.41455 20.9594C5.50957 21.5278 5.80498 22.0432 6.24729 22.4125C6.68959 22.7819 7.24953 22.9806 7.82569 22.9727H10.5744V19.0185C10.5744 18.5708 10.7522 18.1415 11.0688 17.825C11.3852 17.5084 11.8146 17.3306 12.2622 17.3306H13.7089C14.1565 17.3306 14.5858 17.5084 14.9024 17.825C15.2188 18.1415 15.3967 18.5708 15.3967 19.0185V23.0209H18.1695C18.7456 23.0289 19.3056 22.8301 19.7479 22.4608C20.1902 22.0914 20.4857 21.576 20.5807 21.0077L22.389 10.1575C22.4693 9.68244 22.4052 9.19427 22.2055 8.75592C22.0056 8.31756 21.6791 7.94912 21.2678 7.69811Z" stroke="white" stroke-width="1.625" stroke-linecap="round" stroke-linejoin="round"/>
<path d="M8.16315 11.7852H17.8077" stroke="white" stroke-width="1.625" stroke-linecap="round" stroke-linejoin="round"/>
</svg>
