<svg width="23" height="24" viewBox="0 0 23 24" fill="none" xmlns="http://www.w3.org/2000/svg">
<path d="M11.5 10.0834C12.0293 10.0834 12.4584 10.5125 12.4584 11.0418V16.7918C12.4584 17.321 12.0293 17.7501 11.5 17.7501C10.9707 17.7501 10.5417 17.321 10.5417 16.7918V11.0418C10.5417 10.5125 10.9707 10.0834 11.5 10.0834Z" fill="white"/>
<path d="M11.5 8.16675C12.0293 8.16675 12.4584 7.73769 12.4584 7.20842C12.4584 6.67914 12.0293 6.25008 11.5 6.25008C10.9707 6.25008 10.5417 6.67914 10.5417 7.20842C10.5417 7.73769 10.9707 8.16675 11.5 8.16675Z" fill="white"/>
<path fill-rule="evenodd" clip-rule="evenodd" d="M11.5 21.5834C16.7928 21.5834 21.0834 17.2928 21.0834 12.0001C21.0834 6.70735 16.7928 2.41675 11.5 2.41675C6.20729 2.41675 1.91669 6.70735 1.91669 12.0001C1.91669 17.2928 6.20729 21.5834 11.5 21.5834ZM11.5 19.6668C15.7342 19.6668 19.1667 16.2343 19.1667 12.0001C19.1667 7.7659 15.7342 4.33342 11.5 4.33342C7.26584 4.33342 3.83335 7.7659 3.83335 12.0001C3.83335 16.2343 7.26584 19.6668 11.5 19.6668Z" fill="white"/>
</svg>
